Jack Sparrow and Barbossa embark on a quest to find the elusive fountain of youth, only to discover that Blackbeard and his daughter are after it too.

Director:
Rob Marshall
Writers:
Ted Elliott (screenplay), Terry Rossio (screenplay), and 7 more credits »
Stars:
Johnny Depp, Penélope Cruz and Ian McShane

Media info:


General
Complete name                    : E:\torrent2\Pirates of the Caribbean On.Stranger Tides.2011.DVDRip.MKV.480.AC3 5.1-ACB-Team\Pirates of the Caribbean On.Stranger Tides.2011.DVDRip.MKV.480.AC3 5.1-ACB-Team.mkv
Format                           : Matroska
File size                        : 4.28 GiB
Duration                         : 2h 16mn
Overall bit rate                 : 4 497 Kbps
Encoded date                     : UTC 2011-08-24 15:45:17
Writing application              : mkvmerge v3.2.0 ('Beginnings') built on Feb 12 2010 16:46:17
Writing library                  : libebml v0.7.9 + libmatroska v0.8.1

Video
ID                               : 1
Format                           : MPEG Video
Format version                   : Version 2
Format profile                   : Main@Main
Format settings, BVOP            : No
Format settings, Matrix          : Default
Codec ID                         : V_MPEG2
Codec ID/Info                    : MPEG 1 or 2 Video
Duration                         : 2h 16mn
Bit rate mode                    : Constant
Bit rate                         : 4 046 Kbps
Width                            : 720 pixels
Height                           : 480 pixels
Display aspect ratio             : 16:9
Original display aspect ratio    : 16:9
Frame rate                       : 29.970 fps
Standard                         : NTSC
Color space                      : YUV
Chroma subsampling               : 4:2:0
Bit depth                        : 8 bits
Scan type                        : Progressive
Scan order                       : Top Field First
Bits/(Pixel*Frame)               : 0.391
Stream size                      : 3.77 GiB (88%)
Writing library                  : TMPGEnc Video Mastering Works 5 Version. 5.0.6.38
Language                         : English

Audio
ID                               : 2
Format                           : AC-3
Format/Info                      : Audio Coding 3
Mode extension                   : CM (complete main)
Codec ID                         : A_AC3
Duration                         : 2h 16mn
Bit rate mode                    : Constant
Bit rate                         : 448 Kbps
Channel(s)                       : 6 channels
Channel positions                : Front: L C R, Side: L R, LFE
Sampling rate                    : 48.0 KHz
Bit depth                        : 16 bits
Stream size                      : 437 MiB (10%)
Title                            : 3/2+1
Language                         : English

Text
ID                               : 3
Format                           : UTF-8
Codec ID                         : S_TEXT/UTF8
Codec ID/Info                    : UTF-8 Plain Text
Language                         : Dutch

Menu #1
00:00:00.000                     : en:00:00:00.000
00:10:00.000                     : en:00:10:00.000
00:20:00.000                     : en:00:20:00.000
00:30:00.000                     : en:00:30:00.000
00:40:00.000                     : en:00:40:00.000
00:50:00.000                     : en:00:50:00.000
01:00:00.000                     : en:01:00:00.000
01:10:00.000                     : en:01:10:00.000
01:20:00.000                     : en:01:20:00.000
01:30:00.000                     : en:01:30:00.000
01:40:00.000                     : en:01:40:00.000
01:50:00.000                     : en:01:50:00.000
02:00:00.000                     : en:02:00:00.000


 